<svg id="Layer_1" data-name="Layer 1" xmlns="http://www.w3.org/2000/svg" viewBox="0 0 100.5 18.09"><defs><style>.cls-1{fill:#111;}</style></defs><title>logo-mobile-header</title><path class="cls-1" d="M1.22,16.58A6.82,6.82,0,0,1,0,12.22V5.88A6.8,6.8,0,0,1,1.21,1.49C2,.5,3.4,0,5.36,0s3.19.44,4,1.32A5.52,5.52,0,0,1,10.5,5.08V6.6H6.64V4.84a4.46,4.46,0,0,0-.22-1.56c-.15-.36-.5-.54-1.06-.54a1.08,1.08,0,0,0-1.1.57A3.84,3.84,0,0,0,4,4.91v8.27a3.61,3.61,0,0,0,.28,1.6,1.1,1.1,0,0,0,1.09.55,1,1,0,0,0,1-.55,4.44,4.44,0,0,0,.23-1.6V11.33H10.5v1.52a5.8,5.8,0,0,1-1.17,3.86c-.78.92-2.11,1.38-4,1.38S2,17.58,1.22,16.58Z"/><path class="cls-1" d="M15.2.24h4.49L23,17.83H19.38l-.59-3.72H16.17l-.62,3.72H11.82Zm3.21,11.55-.94-6.86-.95,6.86Z"/><path class="cls-1" d="M25.75,3.13H23.06V.24h9.33V3.13H29.72v14.7h-4Z"/><path class="cls-1" d="M39.53.24h6.93V2.06H42V7.88h3.6V9.62H42v6.45H46.5v1.76h-7Z"/><path class="cls-1" d="M48.49.24h1.7l5.07,11.68V.24h2.07V17.83H55.74l-5.14-12v12H48.49Z"/><path class="cls-1" d="M59.81.24h6.93V2.06H62.3V7.88h3.6V9.62H62.3v6.45h4.48v1.76h-7Z"/><path class="cls-1" d="M68.77.24h3.59a5.93,5.93,0,0,1,4,1.1,4.47,4.47,0,0,1,1.27,3.57c0,2.26-.74,3.62-2.2,4.1l2.53,8.82h-2.4L73.2,9.57H71.26v8.26H68.77Zm3.44,7.58a3.38,3.38,0,0,0,2.3-.63,3,3,0,0,0,.7-2.28A4.64,4.64,0,0,0,75,3.2a1.63,1.63,0,0,0-.86-.91A4.24,4.24,0,0,0,72.36,2h-1.1V7.82Z"/><path class="cls-1" d="M80.81,16.53a7.67,7.67,0,0,1-1.08-4.48V6.17a10.94,10.94,0,0,1,.43-3.36,3.79,3.79,0,0,1,1.48-2,5.11,5.11,0,0,1,2.88-.7,4.56,4.56,0,0,1,3.56,1.23,5.85,5.85,0,0,1,1.09,3.89v.65H86.83V5.32a9.54,9.54,0,0,0-.15-1.94,1.66,1.66,0,0,0-.65-1A2.52,2.52,0,0,0,84.56,2,2.2,2.2,0,0,0,83,2.46a2.16,2.16,0,0,0-.65,1.25,11.58,11.58,0,0,0-.15,2.09v6.51a6.25,6.25,0,0,0,.5,2.9,2,2,0,0,0,1.91.88,2,2,0,0,0,1.9-1,6.65,6.65,0,0,0,.52-3.06V10.86H84.78V9.12H89.3v8.71H87.74l-.25-2A3.14,3.14,0,0,1,84.32,18,4,4,0,0,1,80.81,16.53Z"/><path class="cls-1" d="M94.28,11.62,90.42.24h2.32l2.73,8.49L98.16.24h2.34L96.66,11.62v6.21H94.28Z"/></svg>